#N canvas 1138 23 396 552 10;
#X obj 35 10 cnv 24 170 24 empty empty M2P 5 14 0 24 -1 -262144 0;
#X obj 10 10 cnv 24 24 24 empty empty empty 20 12 0 14 -262144 -262144
0;
#X obj 11 274 mono;
#X obj 11 180 notein;
#X obj 11 201 pack f f;
#X obj 11 248 unpack f f;
#X obj 105 236 unpack f f;
#X obj 105 278 pack f f f;
#X obj 105 299 s \$0-poly;
#X obj 11 405 s \$0-mono;
#N canvas 54 98 1866 265 voices 0;
#X obj 12 152 adc~ 1;
#X obj 12 166 pitchshift;
#X obj 79 12 r \$0-poly;
#X obj 79 54 unpack f f;
#X obj 151 68 > 0;
#X obj 12 192 *~;
#X obj 79 104 mtof;
#X obj 79 135 /;
#X obj 13 70 r \$0-mono;
#X obj 13 121 t b f;
#X obj 151 178 vline~;
#X obj 151 136 pack f f;
#X obj 156 115 r \$0-snd-atk;
#X obj 231 136 pack f f;
#X obj 236 115 r \$0-snd-rel;
#X obj 151 89 sel 1 0;
#X msg 151 157 1 \$2;
#X msg 231 157 0 \$2;
#X obj 12 213 outlet~;
#X obj 79 33 route 1;
#X obj 13 91 mtof;
#X obj 112 131 -;
#X obj 112 110 t b f;
#X obj 112 152 abs;
#X obj 321 166 pitchshift;
#X obj 388 12 r \$0-poly;
#X obj 388 54 unpack f f;
#X obj 460 68 > 0;
#X obj 321 192 *~;
#X obj 388 104 mtof;
#X obj 388 135 /;
#X obj 322 70 r \$0-mono;
#X obj 322 121 t b f;
#X obj 460 178 vline~;
#X obj 460 136 pack f f;
#X obj 465 115 r \$0-snd-atk;
#X obj 540 136 pack f f;
#X obj 545 115 r \$0-snd-rel;
#X obj 460 89 sel 1 0;
#X msg 460 157 1 \$2;
#X msg 540 157 0 \$2;
#X obj 322 91 mtof;
#X obj 421 131 -;
#X obj 421 110 t b f;
#X obj 421 152 abs;
#X obj 630 166 pitchshift;
#X obj 697 12 r \$0-poly;
#X obj 697 54 unpack f f;
#X obj 769 68 > 0;
#X obj 630 192 *~;
#X obj 697 104 mtof;
#X obj 697 135 /;
#X obj 631 70 r \$0-mono;
#X obj 631 121 t b f;
#X obj 769 178 vline~;
#X obj 769 136 pack f f;
#X obj 774 115 r \$0-snd-atk;
#X obj 849 136 pack f f;
#X obj 854 115 r \$0-snd-rel;
#X obj 769 89 sel 1 0;
#X msg 769 157 1 \$2;
#X msg 849 157 0 \$2;
#X obj 631 91 mtof;
#X obj 730 131 -;
#X obj 730 110 t b f;
#X obj 730 152 abs;
#X obj 939 166 pitchshift;
#X obj 1006 12 r \$0-poly;
#X obj 1006 54 unpack f f;
#X obj 1078 68 > 0;
#X obj 939 192 *~;
#X obj 1006 104 mtof;
#X obj 1006 135 /;
#X obj 940 70 r \$0-mono;
#X obj 940 121 t b f;
#X obj 1078 178 vline~;
#X obj 1078 136 pack f f;
#X obj 1083 115 r \$0-snd-atk;
#X obj 1158 136 pack f f;
#X obj 1163 115 r \$0-snd-rel;
#X obj 1078 89 sel 1 0;
#X msg 1078 157 1 \$2;
#X msg 1158 157 0 \$2;
#X obj 940 91 mtof;
#X obj 1039 131 -;
#X obj 1039 110 t b f;
#X obj 1039 152 abs;
#X obj 388 33 route 2;
#X obj 697 33 route 3;
#X obj 1006 33 route 4;
#X obj 1248 166 pitchshift;
#X obj 1315 12 r \$0-poly;
#X obj 1315 54 unpack f f;
#X obj 1387 68 > 0;
#X obj 1248 192 *~;
#X obj 1315 104 mtof;
#X obj 1315 135 /;
#X obj 1249 70 r \$0-mono;
#X obj 1249 121 t b f;
#X obj 1387 178 vline~;
#X obj 1387 136 pack f f;
#X obj 1392 115 r \$0-snd-atk;
#X obj 1467 136 pack f f;
#X obj 1472 115 r \$0-snd-rel;
#X obj 1387 89 sel 1 0;
#X msg 1387 157 1 \$2;
#X msg 1467 157 0 \$2;
#X obj 1249 91 mtof;
#X obj 1348 131 -;
#X obj 1348 110 t b f;
#X obj 1348 152 abs;
#X obj 1557 166 pitchshift;
#X obj 1624 12 r \$0-poly;
#X obj 1624 54 unpack f f;
#X obj 1696 68 > 0;
#X obj 1557 192 *~;
#X obj 1624 104 mtof;
#X obj 1624 135 /;
#X obj 1558 70 r \$0-mono;
#X obj 1558 121 t b f;
#X obj 1696 178 vline~;
#X obj 1696 136 pack f f;
#X obj 1701 115 r \$0-snd-atk;
#X obj 1776 136 pack f f;
#X obj 1781 115 r \$0-snd-rel;
#X obj 1696 89 sel 1 0;
#X msg 1696 157 1 \$2;
#X msg 1776 157 0 \$2;
#X obj 1558 91 mtof;
#X obj 1657 131 -;
#X obj 1657 110 t b f;
#X obj 1657 152 abs;
#X obj 1315 33 route 5;
#X obj 1624 33 route 6;
#X obj 92 213 outlet~;
#X connect 0 0 45 0;
#X connect 0 0 134 0;
#X connect 0 0 1 0;
#X connect 0 0 24 0;
#X connect 0 0 111 0;
#X connect 0 0 90 0;
#X connect 0 0 66 0;
#X connect 1 0 5 0;
#X connect 2 0 19 0;
#X connect 3 0 6 0;
#X connect 3 0 21 0;
#X connect 3 1 4 0;
#X connect 4 0 15 0;
#X connect 5 0 18 0;
#X connect 6 0 7 0;
#X connect 7 0 1 1;
#X connect 8 0 20 0;
#X connect 8 0 22 0;
#X connect 9 0 7 0;
#X connect 9 1 7 1;
#X connect 10 0 5 1;
#X connect 11 0 16 0;
#X connect 12 0 11 1;
#X connect 13 0 17 0;
#X connect 14 0 13 1;
#X connect 15 0 11 0;
#X connect 15 1 13 0;
#X connect 16 0 10 0;
#X connect 17 0 10 0;
#X connect 19 0 3 0;
#X connect 20 0 9 0;
#X connect 21 0 23 0;
#X connect 22 0 21 0;
#X connect 22 1 21 1;
#X connect 23 0 1 2;
#X connect 24 0 28 0;
#X connect 25 0 87 0;
#X connect 26 0 29 0;
#X connect 26 0 42 0;
#X connect 26 1 27 0;
#X connect 27 0 38 0;
#X connect 28 0 18 0;
#X connect 29 0 30 0;
#X connect 30 0 24 1;
#X connect 31 0 41 0;
#X connect 31 0 43 0;
#X connect 32 0 30 0;
#X connect 32 1 30 1;
#X connect 33 0 28 1;
#X connect 34 0 39 0;
#X connect 35 0 34 1;
#X connect 36 0 40 0;
#X connect 37 0 36 1;
#X connect 38 0 34 0;
#X connect 38 1 36 0;
#X connect 39 0 33 0;
#X connect 40 0 33 0;
#X connect 41 0 32 0;
#X connect 42 0 44 0;
#X connect 43 0 42 0;
#X connect 43 1 42 1;
#X connect 44 0 24 2;
#X connect 45 0 49 0;
#X connect 46 0 88 0;
#X connect 47 0 50 0;
#X connect 47 0 63 0;
#X connect 47 1 48 0;
#X connect 48 0 59 0;
#X connect 49 0 18 0;
#X connect 50 0 51 0;
#X connect 51 0 45 1;
#X connect 52 0 62 0;
#X connect 52 0 64 0;
#X connect 53 0 51 0;
#X connect 53 1 51 1;
#X connect 54 0 49 1;
#X connect 55 0 60 0;
#X connect 56 0 55 1;
#X connect 57 0 61 0;
#X connect 58 0 57 1;
#X connect 59 0 55 0;
#X connect 59 1 57 0;
#X connect 60 0 54 0;
#X connect 61 0 54 0;
#X connect 62 0 53 0;
#X connect 63 0 65 0;
#X connect 64 0 63 0;
#X connect 64 1 63 1;
#X connect 65 0 45 2;
#X connect 66 0 70 0;
#X connect 67 0 89 0;
#X connect 68 0 71 0;
#X connect 68 0 84 0;
#X connect 68 1 69 0;
#X connect 69 0 80 0;
#X connect 70 0 18 0;
#X connect 71 0 72 0;
#X connect 72 0 66 1;
#X connect 73 0 83 0;
#X connect 73 0 85 0;
#X connect 74 0 72 0;
#X connect 74 1 72 1;
#X connect 75 0 70 1;
#X connect 76 0 81 0;
#X connect 77 0 76 1;
#X connect 78 0 82 0;
#X connect 79 0 78 1;
#X connect 80 0 76 0;
#X connect 80 1 78 0;
#X connect 81 0 75 0;
#X connect 82 0 75 0;
#X connect 83 0 74 0;
#X connect 84 0 86 0;
#X connect 85 0 84 0;
#X connect 85 1 84 1;
#X connect 86 0 66 2;
#X connect 87 0 26 0;
#X connect 88 0 47 0;
#X connect 89 0 68 0;
#X connect 90 0 94 0;
#X connect 91 0 132 0;
#X connect 92 0 95 0;
#X connect 92 0 108 0;
#X connect 92 1 93 0;
#X connect 93 0 104 0;
#X connect 94 0 18 0;
#X connect 95 0 96 0;
#X connect 96 0 90 1;
#X connect 97 0 107 0;
#X connect 97 0 109 0;
#X connect 98 0 96 0;
#X connect 98 1 96 1;
#X connect 99 0 94 1;
#X connect 100 0 105 0;
#X connect 101 0 100 1;
#X connect 102 0 106 0;
#X connect 103 0 102 1;
#X connect 104 0 100 0;
#X connect 104 1 102 0;
#X connect 105 0 99 0;
#X connect 106 0 99 0;
#X connect 107 0 98 0;
#X connect 108 0 110 0;
#X connect 109 0 108 0;
#X connect 109 1 108 1;
#X connect 110 0 90 2;
#X connect 111 0 115 0;
#X connect 112 0 133 0;
#X connect 113 0 116 0;
#X connect 113 0 129 0;
#X connect 113 1 114 0;
#X connect 114 0 125 0;
#X connect 115 0 18 0;
#X connect 116 0 117 0;
#X connect 117 0 111 1;
#X connect 118 0 128 0;
#X connect 118 0 130 0;
#X connect 119 0 117 0;
#X connect 119 1 117 1;
#X connect 120 0 115 1;
#X connect 121 0 126 0;
#X connect 122 0 121 1;
#X connect 123 0 127 0;
#X connect 124 0 123 1;
#X connect 125 0 121 0;
#X connect 125 1 123 0;
#X connect 126 0 120 0;
#X connect 127 0 120 0;
#X connect 128 0 119 0;
#X connect 129 0 131 0;
#X connect 130 0 129 0;
#X connect 130 1 129 1;
#X connect 131 0 111 2;
#X connect 132 0 92 0;
#X connect 133 0 113 0;
#X restore 11 431 pd voices;
#N canvas 4 23 162 227 hv.tanh 0;
#X obj 12 12 inlet~;
#X obj 12 38 clip~ -3 3;
#X obj 27 64 *~;
#X obj 12 192 outlet~;
#X obj 27 140 /~;
#X obj 12 166 *~;
#X obj 67 90 *~ 9;
#X obj 27 90 +~ 27;
#X obj 67 116 +~ 27;
#X connect 0 0 1 0;
#X connect 1 0 2 0;
#X connect 1 0 2 1;
#X connect 1 0 5 0;
#X connect 2 0 7 0;
#X connect 2 0 6 0;
#X connect 4 0 5 1;
#X connect 5 0 3 0;
#X connect 6 0 8 0;
#X connect 7 0 4 0;
#X connect 8 0 4 1;
#X restore 11 488 pd hv.tanh;
#X obj 21 295 sel 0;
#X obj 105 257 poly 6 1;
#X obj 11 222 t l l;
#X obj 11 316 list prepend 0;
#X obj 21 337 list prepend 1;
#X obj 32 358 list prepend 2;
#X obj 11 384 route;
#X obj 125 370 r \$0-snd-prt;
#X obj 11 452 *~;
#X obj 211 354 r \$0-wet-lvl;
#X obj 297 364 r \$0-dry-lvl;
#X obj 211 375 + 100;
#X obj 211 396 dbtorms;
#X msg 211 417 \$1 20;
#X obj 211 438 line~;
#X obj 297 385 + 100;
#X obj 297 406 dbtorms;
#X msg 297 427 \$1 20;
#X obj 297 448 line~;
#X obj 62 462 *~;
#X obj 11 509 dac~ 1 2;
#X obj 10 35 cnv 24 195 130 empty empty empty 20 12 0 14 -228856 -66577
0;
#X obj 14 88 cnv 17 90 75 empty empty empty 20 20 0 14 -122832 -66577
0;
#X obj 120 106 nbx 5 17 0 1e+37 0 1 \$0-snd-atk empty empty 0 -8 0
10 -1 -262144 -1 1 256;
#X text 118 90 ATTACK;
#X text 178 107 ms;
#X text 39 125 LAST;
#X text 39 142 LOW;
#X text 17 90 NOTE PRIORITY;
#X text 39 108 HIGH;
#X text 178 142 ms;
#X obj 120 141 nbx 5 17 0 1e+37 0 1 \$0-snd-rel empty empty 0 -8 0
10 -1 -262144 -1 1 256;
#X text 118 125 RELEASE;
#X text 108 75 AMP ENVELOPE;
#X obj 20 56 nbx 4 17 -100 24 0 1 \$0-wet-lvl empty empty 0 -8 0 10
-1 -262144 -1 0 256;
#X text 68 57 dB;
#X text 18 40 WET LEVEL;
#X obj 90 56 nbx 4 17 -100 24 0 1 \$0-dry-lvl empty empty 0 -8 0 10
-1 -262144 -1 0 256;
#X text 138 57 dB;
#X text 88 40 DRY LEVEL;
#X obj 20 106 vradio 17 1 1 3 \$0-snd-prt empty empty 0 -8 0 10 -1
-262144 -1 1;
#X connect 2 0 15 0;
#X connect 2 1 12 0;
#X connect 2 2 17 0;
#X connect 3 0 4 0;
#X connect 3 1 4 1;
#X connect 4 0 14 0;
#X connect 5 0 2 0;
#X connect 5 1 2 1;
#X connect 6 0 13 0;
#X connect 6 1 13 1;
#X connect 7 0 8 0;
#X connect 10 0 20 0;
#X connect 10 1 31 0;
#X connect 11 0 32 0;
#X connect 11 0 32 1;
#X connect 12 1 16 0;
#X connect 13 0 7 0;
#X connect 13 1 7 1;
#X connect 13 2 7 2;
#X connect 14 0 5 0;
#X connect 14 1 6 0;
#X connect 15 0 18 0;
#X connect 16 0 18 0;
#X connect 17 0 18 0;
#X connect 18 0 9 0;
#X connect 19 0 18 1;
#X connect 20 0 11 0;
#X connect 21 0 23 0;
#X connect 22 0 27 0;
#X connect 23 0 24 0;
#X connect 24 0 25 0;
#X connect 25 0 26 0;
#X connect 26 0 20 1;
#X connect 27 0 28 0;
#X connect 28 0 29 0;
#X connect 29 0 30 0;
#X connect 30 0 31 1;
#X connect 31 0 11 0;
#X coords 0 -1 1 1 195 155 2 10 10;
