#N canvas 1131 76 447 582 10;
#X obj 82 330 *~;
#X text 137 52 PITCH SHIFTER;
#X obj 82 213 /;
#X obj 168 177 * 0.001;
#X obj 9 369 cos~;
#X obj 9 391 *~;
#X obj 9 447 +~;
#X obj 219 347 wrap~;
#X obj 219 369 *~;
#X obj 156 408 cos~;
#X obj 156 430 *~;
#X obj 234 53 loadbang;
#X obj 168 199 t b f;
#X obj 219 325 +~ 0.5;
#X obj 9 325 -~ 0.5;
#X obj 9 347 *~ 0.5;
#X obj 156 364 -~ 0.5;
#X obj 156 386 *~ 0.5;
#X obj 82 169 - 1;
#X obj 82 191 * -1;
#X text 145 132 speed;
#X text 145 146 change;
#X text 278 79 <--window (msec);
#X text 147 226 tape head;
#X obj 82 308 phasor~;
#X obj 234 119 max 1;
#X text 148 239 rotation freq;
#X obj 6 28 inlet~;
#X obj 9 489 outlet~;
#X text 10 516 from Pd's help browser \, audio examples G09.pitchshift.pd
;
#X obj 219 413 vd~ \$0-del;
#X obj 82 374 vd~ \$0-del;
#X obj 82 87 inlet;
#X obj 82 108 change;
#X msg 80 54 clear;
#X obj 6 49 *~;
#X obj 9 468 *~;
#X obj 287 454 vline~;
#X msg 234 75 50;
#X obj 82 129 t f b;
#X obj 234 163 sig~;
#X obj 6 75 delwrite~ \$0-del 256;
#X obj 82 150 pipe 2;
#X msg 287 433 0 1 \, 1 1 2;
#X obj 381 20 inlet;
#X obj 381 41 / 12;
#X obj 381 62 * 50;
#X obj 381 83 + 25;
#X obj 381 104 pipe 2;
#X obj 286 283 block~ 1 1 1;
#X connect 0 0 31 0;
#X connect 2 0 24 0;
#X connect 3 0 12 0;
#X connect 4 0 5 0;
#X connect 5 0 6 0;
#X connect 6 0 36 0;
#X connect 7 0 8 0;
#X connect 7 0 16 0;
#X connect 8 0 30 0;
#X connect 9 0 10 0;
#X connect 10 0 6 1;
#X connect 11 0 38 0;
#X connect 12 0 2 0;
#X connect 12 1 2 1;
#X connect 13 0 7 0;
#X connect 14 0 15 0;
#X connect 15 0 4 0;
#X connect 16 0 17 0;
#X connect 17 0 9 0;
#X connect 18 0 19 0;
#X connect 19 0 2 0;
#X connect 24 0 0 0;
#X connect 24 0 14 0;
#X connect 24 0 13 0;
#X connect 25 0 3 0;
#X connect 25 0 40 0;
#X connect 27 0 35 0;
#X connect 30 0 10 1;
#X connect 31 0 5 1;
#X connect 32 0 33 0;
#X connect 33 0 39 0;
#X connect 34 0 41 0;
#X connect 35 0 41 0;
#X connect 36 0 28 0;
#X connect 37 0 36 1;
#X connect 37 0 35 1;
#X connect 38 0 25 0;
#X connect 39 0 42 0;
#X connect 39 1 43 0;
#X connect 40 0 0 1;
#X connect 40 0 8 1;
#X connect 42 0 18 0;
#X connect 42 0 34 0;
#X connect 43 0 37 0;
#X connect 44 0 45 0;
#X connect 45 0 46 0;
#X connect 46 0 47 0;
#X connect 47 0 48 0;
#X connect 48 0 25 0;
